<svg xmlns="http://www.w3.org/2000/svg" width="41" height="41" viewBox="0 0 41 41">
  <g id="Group_24719" data-name="Group 24719" transform="translate(-738.5 -560.5)">
    <circle id="Ellipse_1081" data-name="Ellipse 1081" cx="20" cy="20" r="20" transform="translate(739 561)" fill="#8247e5" stroke="rgba(0,0,0,0)" strokeWidth="1"/>
    <g id="polygon-matic-logo" transform="translate(746.5 569.75)">
      <path id="Path_49185" data-name="Path 49185" d="M18.93,6.623a1.663,1.663,0,0,0-1.567,0L13.708,8.777l-2.48,1.371L7.637,12.3a1.663,1.663,0,0,1-1.567,0L3.264,10.6A1.591,1.591,0,0,1,2.48,9.234V5.97A1.61,1.61,0,0,1,3.264,4.6L6.07,2.968a1.663,1.663,0,0,1,1.567,0l2.807,1.7a1.591,1.591,0,0,1,.783,1.371V8.19l2.48-1.436V4.534a1.61,1.61,0,0,0-.783-1.371L7.7.1A1.663,1.663,0,0,0,6.136.1L.783,3.229A1.436,1.436,0,0,0,0,4.534V10.67a1.61,1.61,0,0,0,.783,1.371L6.07,15.109a1.663,1.663,0,0,0,1.567,0l3.59-2.089,2.48-1.436L17.3,9.5a1.663,1.663,0,0,1,1.567,0l2.807,1.632a1.591,1.591,0,0,1,.783,1.371v3.264a1.61,1.61,0,0,1-.783,1.371L18.93,18.764a1.663,1.663,0,0,1-1.567,0l-2.807-1.632a1.591,1.591,0,0,1-.783-1.371V13.673l-2.48,1.436v2.154a1.61,1.61,0,0,0,.783,1.371L17.363,21.7a1.663,1.663,0,0,0,1.567,0l5.287-3.068A1.591,1.591,0,0,0,25,17.263v-6.2a1.61,1.61,0,0,0-.783-1.371Z" transform="translate(0 0.1)" fill="#fff"/>
    </g>
  </g>
</svg>
